HIERARCHY
ROOT Hips
{
    OFFSET   0.000000   0.000000   0.000000
    CHANNELS 6 Xposition Yposition Zposition Zrotation Xrotation Yrotation
    JOINT Chest
    {
        OFFSET   0.000000   8.007240   0.000000
        CHANNELS 3 Zrotation Xrotation Yrotation
        JOINT Chest2
        {
            OFFSET   0.000000  22.077100   0.000000
            CHANNELS 3 Zrotation Xrotation Yrotation
            JOINT Neck
            {
                OFFSET   0.000000  23.254800   0.000000
                CHANNELS 3 Zrotation Xrotation Yrotation
                JOINT Head
                {
                    OFFSET   0.000000  14.370000   1.956600
                    CHANNELS 3 Zrotation Xrotation Yrotation
                    End Site
                    {
                        OFFSET   0.000000  19.566000   0.000000
                    }
                }
            }
            JOINT LeftCollar
            {
                OFFSET   3.911900  19.017000  -0.467064
                CHANNELS 3 Zrotation Xrotation Yrotation
                JOINT LeftShoulder
                {
                    OFFSET  10.383700   0.000000   0.000000
                    CHANNELS 3 Zrotation Xrotation Yrotation
                    JOINT LeftElbow
                    {
                        OFFSET  26.662100   0.001476   0.000517
                        CHANNELS 3 Zrotation Xrotation Yrotation
                        JOINT LeftWrist
                        {
                            OFFSET  28.869000  -0.000025  -0.000106
                            CHANNELS 3 Zrotation Xrotation Yrotation
                            JOINT LeftFinger0
                            {
                                OFFSET   2.044660  -2.323460   3.252850
                                CHANNELS 3 Zrotation Xrotation Yrotation
                                JOINT LeftFinger01
                                {
                                    OFFSET   3.088130   0.000000   0.000000
                                    CHANNELS 3 Zrotation Xrotation Yrotation
                                    JOINT LeftFinger02
                                    {
                                        OFFSET   2.639460   0.000000   0.000000
                                        CHANNELS 3 Zrotation Xrotation Yrotation
                                        End Site
                                        {
                                            OFFSET   2.582190   0.000000   0.000000
                                        }
                                    }
                                }
                            }
                            JOINT LeftFinger1
                            {
                                OFFSET   8.364480   0.000000   3.252850
                                CHANNELS 3 Zrotation Xrotation Yrotation
                                JOINT LeftFinger11
                                {
                                    OFFSET   4.646930   0.000000   0.000000
                                    CHANNELS 3 Zrotation Xrotation Yrotation
                                    JOINT LeftFinger12
                                    {
                                        OFFSET   2.323460   0.000000   0.000000
                                        CHANNELS 3 Zrotation Xrotation Yrotation
                                        End Site
                                        {
                                            OFFSET   2.273050   0.000000   0.000000
                                        }
                                    }
                                }
                            }
                            JOINT LeftFinger2
                            {
                                OFFSET   8.364490   0.000015   1.078090
                                CHANNELS 3 Zrotation Xrotation Yrotation
                                JOINT LeftFinger21
                                {
                                    OFFSET   5.111620   0.000000   0.000000
                                    CHANNELS 3 Zrotation Xrotation Yrotation
                                    JOINT LeftFinger22
                                    {
                                        OFFSET   2.788160   0.000016   0.000000
                                        CHANNELS 3 Zrotation Xrotation Yrotation
                                        End Site
                                        {
                                            OFFSET   2.727660   0.000000   0.000000
                                        }
                                    }
                                }
                            }
                            JOINT LeftFinger3
                            {
                                OFFSET   7.899780   0.000017  -1.078090
                                CHANNELS 3 Zrotation Xrotation Yrotation
                                JOINT LeftFinger31
                                {
                                    OFFSET   4.646930   0.000000   0.000000
                                    CHANNELS 3 Zrotation Xrotation Yrotation
                                    JOINT LeftFinger32
                                    {
                                        OFFSET   2.323470   0.000000   0.000000
                                        CHANNELS 3 Zrotation Xrotation Yrotation
                                        End Site
                                        {
                                            OFFSET   2.273050   0.000000   0.000000
                                        }
                                    }
                                }
                            }
                            JOINT LeftFinger4
                            {
                                OFFSET   7.435090   0.000000  -3.252850
                                CHANNELS 3 Zrotation Xrotation Yrotation
                                JOINT LeftFinger41
                                {
                                    OFFSET   3.717550   0.000000   0.000000
                                    CHANNELS 3 Zrotation Xrotation Yrotation
                                    JOINT LeftFinger42
                                    {
                                        OFFSET   1.858770   0.000000   0.000000
                                        CHANNELS 3 Zrotation Xrotation Yrotation
                                        End Site
                                        {
                                            OFFSET   1.818440   0.000000   0.000000
                                        }
                                    }
                                }
                            }
                        }
                    }
                }
            }
            JOINT RightCollar
            {
                OFFSET  -3.911900  19.017000  -0.467063
                CHANNELS 3 Zrotation Xrotation Yrotation
                JOINT RightShoulder
                {
                    OFFSET -10.383700   0.000019   0.000000
                    CHANNELS 3 Zrotation Xrotation Yrotation
                    JOINT RightElbow
                    {
                        OFFSET -26.662100   0.001175   0.000102
                        CHANNELS 3 Zrotation Xrotation Yrotation
                        JOINT RightWrist
                        {
                            OFFSET -28.869000   0.000016  -0.000079
                            CHANNELS 3 Zrotation Xrotation Yrotation
                            JOINT RightFinger0
                            {
                                OFFSET  -2.044660  -2.323490   3.252850
                                CHANNELS 3 Zrotation Xrotation Yrotation
                                JOINT RightFinger01
                                {
                                    OFFSET  -3.088140   0.000000   0.000000
                                    CHANNELS 3 Zrotation Xrotation Yrotation
                                    JOINT RightFinger02
                                    {
                                        OFFSET  -2.639460   0.000000   0.000000
                                        CHANNELS 3 Zrotation Xrotation Yrotation
                                        End Site
                                        {
                                            OFFSET  -2.582190   0.000000   0.000000
                                        }
                                    }
                                }
                            }
                            JOINT RightFinger1
                            {
                                OFFSET  -8.364480   0.000000   3.252850
                                CHANNELS 3 Zrotation Xrotation Yrotation
                                JOINT RightFinger11
                                {
                                    OFFSET  -4.646930   0.000000   0.000000
                                    CHANNELS 3 Zrotation Xrotation Yrotation
                                    JOINT RightFinger12
                                    {
                                        OFFSET  -2.323470   0.000000   0.000000
                                        CHANNELS 3 Zrotation Xrotation Yrotation
                                        End Site
                                        {
                                            OFFSET  -2.273050   0.000000   0.000000
                                        }
                                    }
                                }
                            }
                            JOINT RightFinger2
                            {
                                OFFSET  -8.364480   0.000000   1.078090
                                CHANNELS 3 Zrotation Xrotation Yrotation
                                JOINT RightFinger21
                                {
                                    OFFSET  -5.111620   0.000000   0.000000
                                    CHANNELS 3 Zrotation Xrotation Yrotation
                                    JOINT RightFinger22
                                    {
                                        OFFSET  -2.788160   0.000000   0.000000
                                        CHANNELS 3 Zrotation Xrotation Yrotation
                                        End Site
                                        {
                                            OFFSET  -2.727660   0.000000   0.000000
                                        }
                                    }
                                }
                            }
                            JOINT RightFinger3
                            {
                                OFFSET  -7.899780   0.000000  -1.078090
                                CHANNELS 3 Zrotation Xrotation Yrotation
                                JOINT RightFinger31
                                {
                                    OFFSET  -4.646930   0.000000   0.000000
                                    CHANNELS 3 Zrotation Xrotation Yrotation
                                    JOINT RightFinger32
                                    {
                                        OFFSET  -2.323470   0.000000   0.000000
                                        CHANNELS 3 Zrotation Xrotation Yrotation
                                        End Site
                                        {
                                            OFFSET  -2.273050   0.000000   0.000000
                                        }
                                    }
                                }
                            }
                            JOINT RightFinger4
                            {
                                OFFSET  -7.435090   0.000000  -3.252850
                                CHANNELS 3 Zrotation Xrotation Yrotation
                                JOINT RightFinger41
                                {
                                    OFFSET  -3.717550   0.000000   0.000000
                                    CHANNELS 3 Zrotation Xrotation Yrotation
                                    JOINT RightFinger42
                                    {
                                        OFFSET  -1.858770   0.000000   0.000000
                                        CHANNELS 3 Zrotation Xrotation Yrotation
                                        End Site
                                        {
                                            OFFSET  -1.818440   0.000000   0.000000
                                        }
                                    }
                                }
                            }
                        }
                    }
                }
            }
        }
    }
    JOINT LeftHip
    {
        OFFSET   9.783040   0.000000   0.000000
        CHANNELS 3 Zrotation Xrotation Yrotation
        JOINT LeftKnee
        {
            OFFSET   0.000032 -41.789100  -0.002222
            CHANNELS 3 Zrotation Xrotation Yrotation
            JOINT LeftAnkle
            {
                OFFSET   0.000087 -41.133200  -0.000135
                CHANNELS 3 Zrotation Xrotation Yrotation
                JOINT LeftToe
                {
                    OFFSET   0.000000  -6.358960  14.674500
                    CHANNELS 3 Zrotation Xrotation Yrotation
                    End Site
                    {
                        OFFSET   0.000000   0.000000   3.913200
                    }
                }
            }
        }
    }
    JOINT RightHip
    {
        OFFSET  -9.783040   0.000000   0.000000
        CHANNELS 3 Zrotation Xrotation Yrotation
        JOINT RightKnee
        {
            OFFSET   0.000047 -41.789100  -0.000896
            CHANNELS 3 Zrotation Xrotation Yrotation
            JOINT RightAnkle
            {
                OFFSET  -0.000117 -41.133300  -0.000248
                CHANNELS 3 Zrotation Xrotation Yrotation
                JOINT RightToe
                {
                    OFFSET   0.000000  -6.358970  14.674500
                    CHANNELS 3 Zrotation Xrotation Yrotation
                    End Site
                    {
                        OFFSET   0.000000   0.000000   3.913200
                    }
                }
            }
        }
    }
}
MOTION
Frames: 6
Frame Time:   0.016667
 -0.498476  89.628100  -0.358728  -1.878740  -1.276580   1.580550   0.597728   0.919708  -1.039180   1.212280   1.828370  -2.088290   1.339710   2.196260  -0.051127   2.209350   4.446270   4.171690  -3.470770   1.909030   1.046730 -71.031300  17.373600  -4.910570  -1.984070  -4.791960  -7.184610   3.255380  -9.725380   9.907960  41.697000  31.275600 -71.105100  -4.286710   0.006380   0.004397   2.856640   0.004462   0.002287 -23.416900   4.393500 -10.048900 -19.475000   0.003246   0.000000 -13.632500   0.002225  -0.001213 -24.331000   3.017830  -6.641120 -24.506200  -0.003407  -0.001838 -16.321100   0.002224  -0.001232 -23.699500   1.191830  -2.712420 -23.727900   0.001219  -0.001616 -15.802800   0.001968  -0.001068 -26.694300   1.331950  -2.646490 -40.087800   0.001500  -0.012250 -26.698500   0.002099   0.000258   5.746650   0.945881   6.814540  72.703900   6.550520  -0.060488   1.582710  -4.116050   4.684700  -7.870270  -8.840360   2.736310 -55.713700  40.607000  80.018300   7.841200   0.001846  -0.004313  -1.079410   0.001543  -0.002133  21.345200   2.997740   7.609010  17.627700  -0.007987   0.008623  12.339400   0.000603   0.000908  21.370000   2.950210   7.477750  21.563200   0.000499   0.000425  14.361100   0.000700   0.011083  20.089900   1.935390   5.275620  20.179100  -0.004470   0.003118  13.439300   0.001022   0.001340  24.730800   1.951850   4.236750  37.204300   0.002977   0.002798  24.778100   0.013512   0.006018   2.941770   4.367100  -0.219502   1.097280   0.360585  -0.851400  -3.177000  -2.529400  -0.359575   0.000000   0.000000   0.000000   0.510538  -0.435793  -0.901271   1.655630   4.654850  -0.417510  -2.899520  -2.188710  -0.585563  -0.000000   0.000000   0.000000
 -0.499667  89.628100  -0.350800  -1.881550  -1.281770   1.580550   0.597690   0.928066  -1.036150   1.212310   1.845110  -2.082330   1.352640   2.167170  -0.051092   2.230480   4.387270   4.145330  -3.482870   1.905250   1.045500 -71.042000  17.358600  -4.909900  -1.991540  -4.838590  -7.203840   3.269040  -9.738050   9.896070  41.705500  31.283200 -71.109400  -4.310480   0.006374   0.004386   2.844760   0.004460   0.002288 -23.438500   4.393140 -10.035000 -19.492200   0.003246   0.000000 -13.644600   0.002223  -0.001213 -24.363300   3.010640  -6.615590 -24.537400  -0.003407  -0.001836 -16.341900   0.002224  -0.001230 -23.779600   1.172760  -2.659730 -23.806900   0.001219  -0.001613 -15.855400   0.001968  -0.001065 -26.755200   1.309330  -2.595290 -40.177400   0.001500  -0.012253 -26.758200   0.002098   0.000258   5.757590   0.922524   6.827760  72.704500   6.581210  -0.065532   1.582510  -4.116060   4.681800  -7.872700  -8.849990   2.736380 -55.690400  40.594300  79.997200   7.862890   0.001839  -0.004314  -1.068570   0.001538  -0.002126  21.356400   2.998280   7.600110  17.636900  -0.007984   0.008623  12.345800   0.000598   0.000904  21.382300   2.950640   7.470650  21.575400   0.000494   0.000423  14.369300   0.000696   0.011087  20.098800   1.934390   5.270380  20.187900  -0.004471   0.003117  13.445100   0.001016   0.001339  24.740600   1.951880   4.232700  37.219000   0.002974   0.002796  24.787900   0.013515   0.006022   2.951460   4.367900  -0.219586   1.090130   0.382858  -0.851819  -3.176610  -2.541800  -0.359785   0.000000   0.000000  -0.000000   0.510602  -0.407735  -0.905002   1.661910   4.624350  -0.409583  -2.899400  -2.177930  -0.585599   0.000000   0.000000   0.000000
 -0.502715  89.628100  -0.338776  -1.887740  -1.292540   1.580560   0.597622   0.944111  -1.030460   1.212370   1.877270  -2.071130   1.374600   2.117470  -0.050852   2.266310   4.286470   4.099240  -3.504380   1.896800   1.041500 -71.058500  17.336000  -4.909030  -2.003260  -4.913150  -7.231720   3.290880  -9.752480   9.879110  41.718500  31.296600 -71.118700  -4.348100   0.006364   0.004363   2.825960   0.004458   0.002293 -23.477400   4.392870 -10.013800 -19.523400   0.003247   0.000000 -13.666400   0.002217  -0.001212 -24.425600   2.999630  -6.572760 -24.597900  -0.003405  -0.001830 -16.382200   0.002224  -0.001226 -23.905100   1.141880  -2.574930 -23.930800   0.001219  -0.001602 -15.937900   0.001967  -0.001057 -26.851100   1.272810  -2.512850 -40.318600   0.001500  -0.012261 -26.852200   0.002098   0.000259   5.775580   0.876967   6.850650  72.705700   6.624970  -0.075941   1.582140  -4.116080   4.676470  -7.875140  -8.859620   2.736450 -55.667000  40.581600  79.976200   7.892280   0.001829  -0.004315  -1.053880   0.001525  -0.002119  21.367700   2.998830   7.591210  17.646000  -0.007981   0.008622  12.352200   0.000585   0.000890  21.394500   2.951060   7.463560  21.587600   0.000480   0.000421  14.377400   0.000686   0.011097  20.107800   1.933390   5.265140  20.196700  -0.004479   0.003113  13.451000   0.001002   0.001335  24.755200   1.951920   4.226720  37.240800   0.002961   0.002791  24.802400   0.013521   0.006032   2.971740   4.373510  -0.219672   1.075840   0.405132  -0.852239  -3.176090  -2.554210  -0.361232   0.000000   0.000000  -0.000000   0.510985  -0.356297  -0.917545   1.672630   4.570550  -0.393089  -2.899220  -2.160550  -0.585632  -0.000000   0.000000   0.000000
 -0.507243  89.628200  -0.331750  -1.895980  -1.303820   1.577290   0.597517   0.960548  -1.024240   1.212360   1.910210  -2.058870   1.393070   2.075780  -0.050020   2.296590   4.202010   4.057780  -3.523880   1.885760   1.033430 -71.070500  17.320300  -4.910490  -2.010820  -4.965530  -7.244800   3.308120  -9.754570   9.872280  41.728100  31.311500 -71.133100  -4.374180   0.006358   0.004334   2.812920   0.004463   0.002303 -23.515200   4.396920  -9.998410 -19.554300   0.003248   0.000000 -13.688000   0.002207  -0.001206 -24.495800   2.992510  -6.536790 -24.666800  -0.003400  -0.001821 -16.428100   0.002223  -0.001218 -23.991500   1.117950  -2.510400 -24.016000   0.001219  -0.001585 -15.994600   0.001967  -0.001045 -26.918400   1.244750  -2.450050 -40.417600   0.001500  -0.012273 -26.918100   0.002098   0.000258   5.789470   0.825793   6.869660  72.707400   6.639620  -0.092353   1.585960  -4.121210   4.671990  -7.859420  -8.848600   2.735930 -55.668400  40.585700  79.985900   7.898090   0.001825  -0.004308  -1.050970   0.001502  -0.002120  21.367700   2.996000   7.591860  17.645700  -0.007981   0.008626  12.352000   0.000564   0.000867  21.394500   2.948860   7.465640  21.587300   0.000455   0.000423  14.377200   0.000675   0.011111  20.107800   1.934600   5.268450  20.196700  -0.004499   0.003108  13.451000   0.000977   0.001328  24.764600   1.951980   4.223060  37.254800   0.002933   0.002784  24.811600   0.013533   0.006050   2.997070   4.394530  -0.219589   1.059060   0.394919  -0.846511  -3.175960  -2.551120  -0.364727   0.000000   0.000000   0.000000   0.512356  -0.298949  -0.943144   1.684430   4.507880  -0.370651  -2.903010  -2.147730  -0.578661   0.000000   0.000000   0.000000
 -0.513341  89.628200  -0.325950  -1.905980  -1.321310   1.570170   0.597500   0.981210  -1.017880   1.212600   1.951600  -2.046390   1.411830   2.031350  -0.048996   2.327290   4.111910   4.013750  -3.546130   1.871670   1.024530 -71.076000  17.312300  -4.914300  -2.017780  -5.015460  -7.253800   3.323600  -9.754970   9.867860  41.733000  31.322200 -71.145000  -4.397610   0.006351   0.004297   2.801210   0.004468   0.002311 -23.554100   4.404210  -9.990380 -19.586700   0.003249  -0.000000 -13.710600   0.002196  -0.001201 -24.570500   2.987320  -6.502700 -24.740300  -0.003393  -0.001809 -16.477000   0.002221  -0.001210 -24.062500   1.097380  -2.455520 -24.086100   0.001220  -0.001561 -16.041300   0.001968  -0.001028 -26.975100   1.220760  -2.396600 -40.501000   0.001501  -0.012289 -26.973700   0.002098   0.000257   5.803060   0.768294   6.891830  72.707100   6.654960  -0.103402   1.594380  -4.133380   4.665470  -7.835150  -8.825150   2.732790 -55.678800  40.595700  80.005900   7.902720   0.001823  -0.004291  -1.048650   0.001469  -0.002121  21.366500   2.989200   7.592490  17.644000  -0.007981   0.008633  12.350800   0.000536   0.000836  21.393300   2.943530   7.467700  21.585500   0.000423   0.000424  14.375900   0.000660   0.011130  20.107600   1.935810   5.271750  20.196700  -0.004526   0.003099  13.451000   0.000946   0.001319  24.769100   1.952040   4.221330  37.261700   0.002897   0.002776  24.816100   0.013548   0.006073   3.026430   4.424590  -0.218974   1.040370   0.384708  -0.833944  -3.176110  -2.548030  -0.371891  -0.000000   0.000000   0.000000   0.517160  -0.248760  -0.971776   1.691210   4.468500  -0.348976  -2.910850  -2.135970  -0.564083  -0.000000   0.000000  -0.000000
 -0.520709  89.628300  -0.320274  -1.916980  -1.350330   1.560770   0.597702   1.008020  -1.012380   1.213270   2.005280  -2.035690   1.430860   1.982830  -0.048351   2.358130   4.013070   3.967540  -3.572660   1.855060   1.018050 -71.073200  17.313100  -4.920110  -2.024880  -5.066180  -7.261580   3.333700  -9.738210   9.862670  41.732500  31.323300 -71.146700  -4.418100   0.006345   0.004255   2.790960   0.004462   0.002301 -23.589100   4.412540  -9.991050 -19.615900   0.003250   0.000030 -13.731100   0.002190  -0.001226 -24.640100   2.985280  -6.473750 -24.809000  -0.003386  -0.001793 -16.522800   0.002218  -0.001201 -24.105300   1.086010  -2.425410 -24.128400   0.001220  -0.001531 -16.069500   0.001968  -0.001007 -27.011100   1.207600  -2.367250 -40.554100   0.001502  -0.012311 -27.009100   0.002098   0.000258   5.817890   0.709908   6.921100  72.697100   6.688170  -0.102744   1.604480  -4.151580   4.658570  -7.819820  -8.797150   2.725890 -55.705300  40.611600  80.033100   7.922460   0.001821  -0.004262  -1.038790   0.001423  -0.002114  21.351600   2.978240   7.575420  17.630700  -0.007980   0.008634  12.341500   0.000501   0.000798  21.382400   2.934860   7.453920  21.573500   0.000387   0.000419  14.367900   0.000636   0.011156  20.099500   1.929000   5.255710  20.188100  -0.004559   0.003088  13.445200   0.000908   0.001308  24.766800   1.952100   4.222070  37.258100   0.002857   0.002765  24.813800   0.013565   0.006100   3.056480   4.452430  -0.215319   1.022040   0.397608  -0.816247  -3.176590  -2.556260  -0.385636   0.000000   0.000000   0.000000   0.530470  -0.235050  -0.997973   1.690050   4.478120  -0.335877  -2.919990  -2.125100  -0.545331  -0.000000   0.000000   0.000000
